<?xml version="1.0" encoding="UTF-8"?>
<svg width="30px" height="32px" viewBox="0 0 30 32" version="1.1" xmlns="http://www.w3.org/2000/svg" xmlns:xlink="http://www.w3.org/1999/xlink">
    <title>Shape</title>
    <g id="Page-1" stroke="none" stroke-width="1" fill="none" fill-rule="evenodd">
        <g id="Group" fill="#FF385C" fill-rule="nonzero">
            <path d="M29.3864,22.7101 C29.2429,22.3073 29.0752,21.9176 28.9157,21.5565 C28.6701,21.0011 28.4129,20.4446 28.1641,19.9067 L28.1444,19.864 C25.9255,15.0589 23.5439,10.1881 21.0659,5.38701 L20.9607,5.18316 C20.7079,4.69289 20.4466,4.18596 20.1784,3.68786 C19.8604,3.0575 19.4745,2.4636 19.0276,1.91668 C18.5245,1.31651 17.8956,0.833822 17.1853,0.502654 C16.475,0.171486 15.7005,0 14.9165,0 C14.1325,0 13.3581,0.171877 12.6478,0.503224 C11.9376,0.834571 11.3088,1.31742 10.8059,1.91771 C10.3595,2.46476 9.97383001,3.05853 9.65572001,3.68858 C9.38521001,4.19115 9.12145001,4.70278 8.86640001,5.19757 L8.76872001,5.38696 C6.29061001,10.1884 3.90903001,15.0592 1.69015001,19.8639 L1.65782001,19.9338 C1.41334001,20.463 1.16057001,21.0102 0.919073007,21.5563 C0.759490007,21.9171 0.592009007,22.3065 0.448355007,22.7103 C0.0369063073,23.8104 -0.0942039927,24.9953 0.0668098073,26.1585 C0.237562007,27.334 0.713008007,28.4447 1.44606001,29.3804 C2.17911001,30.3161 3.14434001,31.0444 4.24614001,31.4932 C5.07835001,31.8299 5.96818001,32.002 6.86616001,32.0000172 C7.14824001,32.0000172 7.43008001,31.9835 7.71027001,31.9509 C8.84600001,31.8062 9.94136001,31.4366 10.9321,30.8639 C12.2317,30.1338 13.5152,29.0638 14.9173,27.5348 C16.3194,29.0638 17.6029,30.1338 18.9025,30.8639 C19.8932,31.4367 20.9886,31.8062 22.1243,31.9509 C22.4045,31.9835 22.6864,32.0000172 22.9685,32.0000172 C23.8664,32.002 24.7561,31.8299 25.5883,31.4932 C26.6901,31.0444 27.6554,30.3161 28.3885,29.3804 C29.1216,28.4447 29.5971,27.3341 29.7679,26.1585 C29.9287,24.9952 29.7976,23.8103 29.3864,22.7101 Z M14.9173,24.377 C13.1816,22.1769 12.0678,20.1338 11.677,18.421 C11.5169,17.7792 11.4791,17.1131 11.5656,16.4573 C11.6339,15.9766 11.8105,15.5176 12.0821,15.1148 C12.4163,14.6814 12.8458,14.3304 13.3374,14.0889 C13.829,13.8475 14.3696,13.7219 14.9175,13.7219 C15.4655,13.7219 16.006,13.8476 16.4976,14.0892 C16.9892,14.3307 17.4186,14.6817 17.7528,15.1151 C18.0244,15.5181 18.201,15.9771 18.2693,16.4579 C18.3556,17.114 18.3177,17.7803 18.1573,18.4223 C17.7661,20.1349 16.6526,22.1774 14.9173,24.377 Z M27.7406,25.8689 C27.6212,26.6908 27.2887,27.4674 26.7762,28.1216 C26.2636,28.7759 25.5887,29.2852 24.8183,29.599 C24.0393,29.9111 23.1939,30.0217 22.3607,29.9205 C21.4946,29.8089 20.6599,29.5239 19.9069,29.0824 C18.7501,28.4325 17.5791,27.4348 16.2614,25.9712 C18.3591,23.3846 19.669,21.0005 20.154,18.877 C20.3723,17.984 20.4196,17.0579 20.2935,16.1475 C20.1791,15.3632 19.8879,14.615 19.4419,13.9593 C18.9194,13.2519 18.2378,12.6768 17.452,12.2805 C16.6661,11.8842 15.798,11.6777 14.9175,11.6777 C14.0371,11.6777 13.1689,11.8841 12.383,12.2803 C11.5971,12.6765 10.9155,13.2515 10.393,13.9589 C9.94707001,14.6144 9.65591001,15.3624 9.54140001,16.1465 C9.41524001,17.0566 9.46230001,17.9822 9.68011001,18.8749 C10.1648,20.9993 11.4748,23.384 13.5732,25.9714 C12.2555,27.4348 11.0845,28.4325 9.92769001,29.0825 C9.17468001,29.5239 8.34007001,29.809 7.47395001,29.9205 C6.64065001,30.0217 5.79525001,29.9111 5.01620001,29.599 C4.24581001,29.2852 3.57092001,28.7759 3.05838001,28.1217 C2.54585001,27.4674 2.21345001,26.6908 2.09411001,25.8689 C1.97932001,25.0334 2.07701001,24.1825 2.37818001,23.3946 C2.49266001,23.0728 2.62663001,22.757 2.79260001,22.3818 C3.02740001,21.851 3.27657001,21.3115 3.51759001,20.7898 L3.54996001,20.7197 C5.75643001,15.9419 8.12481001,11.0982 10.5894,6.32294 L10.6875,6.13283 C10.9384,5.64601 11.1979,5.14267 11.4597,4.6563 C11.7101,4.15501 12.0132,3.68171 12.3639,3.2444 C12.6746,2.86903 13.0646,2.56681 13.5059,2.35934 C13.9473,2.15186 14.4291,2.04421999 14.9169,2.04421999 C15.4047,2.04421999 15.8866,2.15171 16.3279,2.35911 C16.7693,2.56651 17.1593,2.86867 17.4701,3.24399 C17.821,3.68097 18.1242,4.15411 18.3744,4.65538 C18.6338,5.13742 18.891,5.63623 19.1398,6.11858 L19.2452,6.32315 C21.7097,11.0979 24.078,15.9415 26.2847,20.7201 L26.3046,20.7631 C26.5498,21.2936 26.8033,21.8419 27.042,22.382 C27.2082,22.7577 27.3424,23.0738 27.4566,23.3944 C27.7576,24.1824 27.8553,25.0333 27.7406,25.8689 Z" id="Shape"></path>
        </g>
    </g>
</svg>